<svg width="18" height="15" viewBox="0 0 18 15" fill="none" xmlns="http://www.w3.org/2000/svg">
<g clip-path="url(#clip0_607_141)">
<path fill-rule="evenodd" clip-rule="evenodd" d="M-0.00402832 0.0290527H25.646V1.1064H-0.00402832V0.0290527ZM-0.00402832 2.18374H25.646V3.26108H-0.00402832V2.18374ZM-0.00402832 4.33569H25.646V5.41577H-0.00402832V4.33569ZM-0.00402832 6.49038H25.646V7.56773H-0.00402832V6.49038ZM-0.00402832 8.64507H25.646V9.72241H-0.00402832V8.64507ZM-0.00402832 10.797H25.646V11.8744H-0.00402832V10.797ZM-0.00402832 12.9517H25.646V14.0291H-0.00402832V12.9517Z" fill="#BD3D44"/>
<path fill-rule="evenodd" clip-rule="evenodd" d="M-0.00390625 1.10645H25.6461V2.18379H-0.00390625V1.10645ZM-0.00390625 3.26113H25.6461V4.33574H-0.00390625V3.26113ZM-0.00390625 5.41309H25.6461V6.49043H-0.00390625V5.41309ZM-0.00390625 7.56777H25.6461V8.64512H-0.00390625V7.56777ZM-0.00390625 9.72246H25.6461V10.7998H-0.00390625V9.72246ZM-0.00390625 11.8744H25.6461V12.9518H-0.00390625V11.8744Z" fill="white"/>
<path fill-rule="evenodd" clip-rule="evenodd" d="M-0.00341797 0.0290527H10.2561V7.56772H-0.00341797V0.0290527Z" fill="#192F5D"/>
<path fill-rule="evenodd" clip-rule="evenodd" d="M0.852783 0.351807L0.947705 0.649854H1.24829L1.00571 0.833057L1.098 1.13384L0.852783 0.9479L0.610205 1.1311L0.70249 0.833057L0.457275 0.649854H0.763135L0.852783 0.351807ZM2.56401 0.351807L2.6563 0.649854H2.95952L2.71431 0.833057L2.80659 1.13384L2.56401 0.9479L2.3188 1.1311L2.41108 0.833057L2.16851 0.649854H2.46909L2.56401 0.351807ZM4.27261 0.351807L4.36753 0.649854H4.66548L4.4229 0.833057L4.51519 1.13384L4.26997 0.9479L4.02739 1.1311L4.11968 0.833057L3.87446 0.649854H4.17769L4.27261 0.351807ZM5.98384 0.351807L6.07612 0.649854H6.37935L6.13413 0.833057L6.22905 1.13384L5.98384 0.9479L5.73862 1.1311L5.83355 0.833057L5.58833 0.649854H5.88892L5.98384 0.351807ZM7.69243 0.351807L7.78735 0.649854H8.08794L7.84536 0.833057L7.93765 1.13384L7.69243 0.9479L7.44985 1.1311L7.54214 0.833057L7.29956 0.649854H7.60015L7.69243 0.351807ZM9.40366 0.351807L9.49595 0.649854H9.79917L9.55396 0.833057L9.64888 1.13384L9.40366 0.9479L9.15845 1.1311L9.25337 0.833057L9.00815 0.649854H9.31138L9.40366 0.351807ZM1.70972 1.10649L1.802 1.40454H2.10522L1.86001 1.58774L1.94966 1.88579L1.71235 1.70259L1.46714 1.88579L1.55415 1.58774L1.31685 1.40454H1.61743L1.70972 1.10649ZM3.41831 1.10649L3.51323 1.40454H3.81382L3.5686 1.58774L3.66353 1.88579L3.41831 1.70259L3.1731 1.88579L3.26802 1.58774L3.0228 1.40454H3.32603L3.41831 1.10649ZM5.12954 1.10649L5.22183 1.40454H5.52505L5.27983 1.58774L5.37212 1.88579L5.12954 1.70259L4.88433 1.88579L4.97661 1.58774L4.73403 1.40454H5.03462L5.12954 1.10649ZM6.83813 1.10649L6.93306 1.40454H7.23364L6.98843 1.58774L7.08335 1.88579L6.83813 1.70259L6.59556 1.88579L6.68784 1.58774L6.44263 1.40454H6.74849L6.83813 1.10649ZM8.54937 1.10649L8.64165 1.40454H8.94487L8.69966 1.58774L8.79194 1.88579L8.54937 1.70259L8.30415 1.88579L8.39644 1.58774L8.15386 1.40454H8.45444L8.54937 1.10649ZM0.852783 1.85845L0.947705 2.16196H1.24829L1.00571 2.34517L1.098 2.64321L0.852783 2.45728L0.610205 2.64321L0.70249 2.34243L0.457275 2.15923H0.763135L0.852783 1.85845ZM2.56401 1.85845L2.6563 2.15923H2.95952L2.71431 2.34243L2.80659 2.64048L2.56401 2.45454L2.3188 2.64048L2.41108 2.3397L2.16851 2.15649H2.46909L2.56401 1.85845ZM4.27261 1.85845L4.36753 2.15923H4.66548L4.4229 2.34243L4.51519 2.64048L4.26997 2.45454L4.02739 2.64048L4.11968 2.3397L3.87446 2.15649H4.17769L4.27261 1.85845ZM5.98384 1.85845L6.07612 2.15923H6.37935L6.13413 2.34243L6.22905 2.64048L5.98384 2.45454L5.73862 2.64048L5.83355 2.3397L5.58833 2.15649H5.88892L5.98384 1.85845ZM7.69243 1.85845L7.78735 2.15923H8.08794L7.84536 2.34243L7.93765 2.64048L7.69243 2.45454L7.44985 2.64048L7.54214 2.3397L7.29956 2.15649H7.60015L7.69243 1.85845ZM9.40366 1.85845L9.49595 2.15923H9.79917L9.55396 2.34243L9.64888 2.64048L9.40366 2.45454L9.15845 2.64048L9.25337 2.3397L9.00815 2.15649H9.31138L9.40366 1.85845ZM1.70972 2.61313L1.802 2.91118H2.10522L1.86001 3.09438L1.95229 3.39517L1.70972 3.20923L1.4645 3.39243L1.55679 3.09438L1.31421 2.91118H1.61479L1.70972 2.61313ZM3.41831 2.61313L3.51323 2.91118H3.81382L3.5686 3.09438L3.66353 3.39517L3.41831 3.20923L3.1731 3.39243L3.26802 3.09438L3.0228 2.91118H3.32603L3.41831 2.61313ZM5.12954 2.61313L5.22183 2.91118H5.52505L5.27983 3.09438L5.37212 3.39517L5.12954 3.20923L4.88433 3.39243L4.97661 3.09438L4.73403 2.91118H5.03462L5.12954 2.61313ZM6.83813 2.61313L6.93306 2.91118H7.23364L6.99107 3.09438L7.08335 3.39517L6.83813 3.20923L6.59556 3.39243L6.68784 3.09438L6.44263 2.91118H6.74849L6.83813 2.61313ZM8.54937 2.61313L8.64165 2.91118H8.94487L8.69966 3.09438L8.79194 3.39517L8.54937 3.20923L8.30415 3.39243L8.39644 3.09438L8.15386 2.91118H8.45444L8.54937 2.61313ZM0.852783 3.36782L0.947705 3.66587H1.24829L1.00571 3.84907L1.098 4.14985L0.852783 3.96392L0.610205 4.14712L0.70249 3.84907L0.457275 3.66587H0.763135L0.852783 3.36782ZM2.56401 3.36782L2.6563 3.66587H2.95952L2.71431 3.84907L2.80659 4.14712L2.56401 3.96392L2.3188 4.14712L2.41108 3.84907L2.16851 3.66587H2.46909L2.56401 3.36782ZM4.27261 3.36782L4.36753 3.66587H4.66548L4.4229 3.84907L4.51519 4.14985L4.26997 3.96392L4.02739 4.14712L4.11968 3.84907L3.87446 3.66587H4.17769L4.27261 3.36782ZM5.98384 3.36782L6.07612 3.66587H6.37935L6.13413 3.84907L6.22905 4.14985L5.98384 3.96392L5.73862 4.14712L5.83355 3.84907L5.58833 3.66587H5.88892L5.98384 3.36782ZM7.69243 3.36782L7.78735 3.66587H8.08794L7.84536 3.84907L7.93765 4.14985L7.69243 3.96392L7.44985 4.14712L7.54214 3.84907L7.29956 3.66587H7.60015L7.69243 3.36782ZM9.40366 3.36782L9.49595 3.66587H9.79917L9.55396 3.84907L9.64888 4.14985L9.40366 3.96392L9.15845 4.14712L9.25337 3.84907L9.00815 3.66587H9.31138L9.40366 3.36782ZM1.70972 4.12251L1.802 4.42056H2.10522L1.86001 4.60376L1.95229 4.90181L1.70972 4.71587L1.4645 4.90181L1.55679 4.60103L1.31421 4.41782H1.61479L1.70972 4.12251ZM3.41831 4.12251L3.51323 4.42056H3.81382L3.5686 4.60376L3.66353 4.90181L3.41831 4.71587L3.1731 4.90181L3.26802 4.60103L3.0228 4.41782H3.32603L3.41831 4.12251ZM5.12954 4.12251L5.22183 4.42056H5.52505L5.27983 4.60376L5.37212 4.90181L5.12954 4.71587L4.88433 4.90181L4.97661 4.60103L4.73403 4.41782H5.03462L5.12954 4.12251ZM6.83813 4.12251L6.93306 4.42056H7.23364L6.99107 4.60376L7.08335 4.90181L6.83813 4.71587L6.59556 4.90181L6.68784 4.60103L6.44263 4.41782H6.74849L6.83813 4.12251ZM8.54937 4.12251L8.64165 4.42056H8.94487L8.69966 4.60376L8.79194 4.90181L8.54937 4.71587L8.30415 4.90181L8.39644 4.60103L8.15386 4.41782H8.45444L8.54937 4.12251ZM0.852783 4.87446L0.947705 5.17524H1.24829L1.00571 5.35845L1.098 5.65376L0.852783 5.47056L0.610205 5.65376L0.70249 5.35571L0.457275 5.17251H0.763135L0.852783 4.87446ZM2.56401 4.87446L2.6563 5.17524H2.95952L2.71431 5.35845L2.80923 5.65376L2.56401 5.47056L2.3188 5.65376L2.41372 5.35571L2.16851 5.17251H2.46909L2.56401 4.87446ZM4.27261 4.87446L4.36753 5.17524H4.66548L4.4229 5.35845L4.51519 5.65376L4.26997 5.47056L4.02739 5.65376L4.11968 5.35571L3.87446 5.17251H4.17769L4.27261 4.87446ZM5.98384 4.87446L6.07612 5.17524H6.37935L6.13413 5.35845L6.22905 5.65376L5.98384 5.47056L5.73862 5.65376L5.83355 5.35571L5.58833 5.17251H5.88892L5.98384 4.87446ZM7.69243 4.87446L7.78735 5.17524H8.08794L7.84536 5.35845L7.93765 5.65376L7.69243 5.47056L7.44985 5.65376L7.54214 5.35571L7.29956 5.17251H7.60015L7.69243 4.87446ZM9.40366 4.87446L9.49595 5.17524H9.79917L9.55396 5.35845L9.64888 5.65376L9.40366 5.47056L9.15845 5.65376L9.25337 5.35571L9.00815 5.17251H9.31138L9.40366 4.87446ZM1.70972 5.62915L1.802 5.9272H2.10522L1.86001 6.1104L1.95229 6.41118L1.70972 6.22524L1.4645 6.40845L1.55679 6.1104L1.31421 5.9272H1.61479L1.70972 5.62915ZM3.41831 5.62915L3.51323 5.9272H3.81382L3.5686 6.1104L3.66353 6.41118L3.41831 6.22524L3.1731 6.40845L3.26802 6.1104L3.0228 5.9272H3.32603L3.41831 5.62915ZM5.12954 5.62915L5.22183 5.9272H5.52505L5.27983 6.1104L5.37212 6.41118L5.12954 6.22524L4.88433 6.40845L4.97661 6.1104L4.73403 5.9272H5.03462L5.12954 5.62915ZM6.83813 5.62915L6.93306 5.9272H7.23364L6.99107 6.1104L7.08335 6.41118L6.83813 6.22524L6.59556 6.40845L6.68784 6.1104L6.44263 5.9272H6.74849L6.83813 5.62915ZM8.54937 5.62915L8.64165 5.9272H8.94487L8.69966 6.1104L8.79194 6.41118L8.54937 6.22524L8.30415 6.40845L8.39644 6.1104L8.15386 5.9272H8.45444L8.54937 5.62915ZM0.852783 6.38384L0.947705 6.68188H1.24829L1.00571 6.86509L1.098 7.16313L0.852783 6.97993L0.610205 7.16313L0.70249 6.86235L0.457275 6.67915H0.763135L0.852783 6.38384ZM2.56401 6.38384L2.6563 6.68188H2.95952L2.71431 6.86509L2.80923 7.16313L2.56401 6.97993L2.3188 7.16313L2.41372 6.86235L2.16851 6.67915H2.46909L2.56401 6.38384ZM4.27261 6.38384L4.36753 6.68188H4.66548L4.42817 6.86509L4.52046 7.16313L4.27524 6.97993L4.03267 7.16313L4.12495 6.86235L3.87974 6.67915H4.18296L4.27261 6.38384ZM5.98384 6.38384L6.07612 6.68188H6.37935L6.13413 6.86509L6.22905 7.16313L5.98384 6.97993L5.73862 7.16313L5.83355 6.86235L5.58833 6.67915H5.88892L5.98384 6.38384ZM7.69243 6.38384L7.78735 6.68188H8.08794L7.84536 6.86509L7.93765 7.16313L7.69243 6.97993L7.44985 7.16313L7.54214 6.86235L7.29956 6.67915H7.60015L7.69243 6.38384ZM9.40366 6.38384L9.49595 6.68188H9.79917L9.55396 6.86509L9.64888 7.16313L9.40366 6.97993L9.15845 7.16313L9.25337 6.86235L9.00815 6.67915H9.31138L9.40366 6.38384Z" fill="white"/>
</g>
<defs>
<clipPath id="clip0_607_141">
<rect width="18" height="14" fill="white" transform="translate(0 0.0290527)"/>
</clipPath>
</defs>
</svg>
